 <svg xmlns="http://www.w3.org/2000/svg" width="22.253" height="27.029" viewBox="0 0 22.253 27.029">
                                        <path id="Path_488" data-name="Path 488" d="M143.825,395.569a3.317,3.317,0,1,0-3.317,3.311A3.314,3.314,0,0,0,143.825,395.569Zm0,0" transform="translate(-129.381 -372.201)" fill="#fff" stroke="#cca8cf" stroke-width="0.5"/>
                                        <path id="Path_489" data-name="Path 489" d="M180.694,392.258a3.164,3.164,0,0,0-.964.15,3.541,3.541,0,0,1,0,6.672,3.164,3.164,0,0,0,.964.15,3.49,3.49,0,0,0,0-6.972Zm0,0" transform="translate(-169.242 -372.201)" fill="#7b2182"/>
                                        <path id="Path_490" data-name="Path 490" d="M163.94,36.257a1.964,1.964,0,1,1,1.541-2.312A1.967,1.967,0,0,1,163.94,36.257Zm0,0" transform="translate(-152.426 -32.215)" fill="#fce8fb" stroke="#cca8cf" stroke-width="0.25"/>
                                        <path id="Path_491" data-name="Path 491" d="M187.564,33.945a1.967,1.967,0,0,0-2.316-1.539,2.011,2.011,0,0,0-.287.08,1.963,1.963,0,0,1,0,3.69,1.967,1.967,0,0,0,2.6-2.232Zm0,0" transform="translate(-174.509 -32.215)" fill="#7b2182"/>
                                        <path id="Path_492" data-name="Path 492" d="M19.59,109.743H3.161a2.666,2.666,0,0,1-1.66-4.749l.528-.425a5.175,5.175,0,0,0,1.931-4.031V97.746a7.473,7.473,0,0,1,14.946,0v2.844a5.175,5.175,0,0,0,1.865,3.977l.514.428a2.685,2.685,0,0,1,.968,2.064v.027a2.66,2.66,0,0,1-2.662,2.657Zm0,0" transform="translate(-0.249 -86.929)" fill="#fff" stroke="#7b2182" stroke-width="0.5"/>
                                        <path id="Path_493" data-name="Path 493" d="M172.071,104.992l-.514-.428a5.176,5.176,0,0,1-1.865-3.978V97.743a7.478,7.478,0,0,0-9.578-7.16,7.465,7.465,0,0,1,5.367,7.16v2.844a5.176,5.176,0,0,0,1.865,3.978l.514.428a2.686,2.686,0,0,1,.968,2.064v.027a2.66,2.66,0,0,1-2.662,2.657h4.211a2.66,2.66,0,0,0,2.662-2.657v-.027a2.685,2.685,0,0,0-.968-2.064Zm0,0" transform="translate(-151.035 -86.926)" fill="#7b2182"/>
                                    </svg>