<svg xmlns="http://www.w3.org/2000/svg" width="22" height="25.143" viewBox="0 0 22 25.143">
  <path id="Icon_awesome-calendar-alt" data-name="Icon awesome-calendar-alt" d="M0,22.786a2.358,2.358,0,0,0,2.357,2.357H19.643A2.358,2.358,0,0,0,22,22.786V9.429H0Zm15.714-9.625a.591.591,0,0,1,.589-.589h1.964a.591.591,0,0,1,.589.589v1.964a.591.591,0,0,1-.589.589H16.3a.591.591,0,0,1-.589-.589Zm0,6.286a.591.591,0,0,1,.589-.589h1.964a.591.591,0,0,1,.589.589v1.964a.591.591,0,0,1-.589.589H16.3a.591.591,0,0,1-.589-.589ZM9.429,13.161a.591.591,0,0,1,.589-.589h1.964a.591.591,0,0,1,.589.589v1.964a.591.591,0,0,1-.589.589H10.018a.591.591,0,0,1-.589-.589Zm0,6.286a.591.591,0,0,1,.589-.589h1.964a.591.591,0,0,1,.589.589v1.964a.591.591,0,0,1-.589.589H10.018a.591.591,0,0,1-.589-.589ZM3.143,13.161a.591.591,0,0,1,.589-.589H5.7a.591.591,0,0,1,.589.589v1.964a.591.591,0,0,1-.589.589H3.732a.591.591,0,0,1-.589-.589Zm0,6.286a.591.591,0,0,1,.589-.589H5.7a.591.591,0,0,1,.589.589v1.964A.591.591,0,0,1,5.7,22H3.732a.591.591,0,0,1-.589-.589Zm16.5-16.3H17.286V.786A.788.788,0,0,0,16.5,0H14.929a.788.788,0,0,0-.786.786V3.143H7.857V.786A.788.788,0,0,0,7.071,0H5.5a.788.788,0,0,0-.786.786V3.143H2.357A2.358,2.358,0,0,0,0,5.5V7.857H22V5.5A2.358,2.358,0,0,0,19.643,3.143Z" fill="#7b2182"/>
</svg>
